<mxfile host="app.diagrams.net" modified="2024-03-25T04:47:00.909Z" agent="Mozilla/5.0 (Windows NT 10.0; Win64; x64) AppleWebKit/537.36 (KHTML, like Gecko) Chrome/122.0.0.0 Safari/537.36" etag="ejcce9HjzUJZtk9TB0fT" version="24.0.6" type="device">
  <diagram name="05 [예제] 구체화(Width Code)" id="Okhfxqb5AKQBt1zYMtm1">
    <mxGraphModel dx="1434" dy="780" grid="1" gridSize="10" guides="1" tooltips="1" connect="1" arrows="1" fold="1" page="1" pageScale="1" pageWidth="3300" pageHeight="4681" math="0" shadow="0">
      <root>
        <mxCell id="mxSxCT3K7TG5ama-A4u--0" />
        <mxCell id="mxSxCT3K7TG5ama-A4u--1" parent="mxSxCT3K7TG5ama-A4u--0" />
        <mxCell id="mxSxCT3K7TG5ama-A4u--4" value="Persistence Layer(영속 계층)&lt;br&gt;- DB 연결영역, 왠만해선 바뀌지 않는다" style="rounded=0;whiteSpace=wrap;html=1;" parent="mxSxCT3K7TG5ama-A4u--1" vertex="1">
          <mxGeometry x="80" y="28" width="1300" height="50" as="geometry" />
        </mxCell>
        <mxCell id="mxSxCT3K7TG5ama-A4u--5" value="저장단위 클래스 만들기(DBTable참고)" style="text;html=1;align=center;verticalAlign=middle;resizable=0;points=[];autosize=1;strokeColor=none;fillColor=none;" parent="mxSxCT3K7TG5ama-A4u--1" vertex="1">
          <mxGeometry x="67.5" y="88" width="230" height="30" as="geometry" />
        </mxCell>
        <mxCell id="mxSxCT3K7TG5ama-A4u--8" value="&lt;p style=&quot;margin:0px;margin-top:4px;text-align:center;&quot;&gt;&lt;b&gt;MemberDto&lt;/b&gt;&lt;/p&gt;&lt;hr size=&quot;1&quot;&gt;&lt;p style=&quot;margin:0px;margin-left:4px;&quot;&gt;- id : String&lt;/p&gt;&lt;p style=&quot;margin:0px;margin-left:4px;&quot;&gt;- pw : String&lt;/p&gt;&lt;p style=&quot;margin:0px;margin-left:4px;&quot;&gt;- username : String&lt;/p&gt;&lt;p style=&quot;margin:0px;margin-left:4px;&quot;&gt;- role&lt;/p&gt;&lt;p style=&quot;margin:0px;margin-left:4px;&quot;&gt;&lt;br&gt;&lt;/p&gt;&lt;hr style=&quot;border-color: var(--border-color);&quot; size=&quot;1&quot;&gt;&lt;p style=&quot;margin:0px;margin-left:4px;&quot;&gt;&lt;br&gt;&lt;/p&gt;" style="verticalAlign=top;align=left;overflow=fill;fontSize=12;fontFamily=Helvetica;html=1;whiteSpace=wrap;" parent="mxSxCT3K7TG5ama-A4u--1" vertex="1">
          <mxGeometry x="397.5" y="146" width="160" height="140" as="geometry" />
        </mxCell>
        <mxCell id="mxSxCT3K7TG5ama-A4u--9" value="&lt;p style=&quot;margin:0px;margin-top:4px;text-align:center;&quot;&gt;&lt;b&gt;LendDto&lt;/b&gt;&lt;/p&gt;&lt;hr size=&quot;1&quot;&gt;&lt;p style=&quot;margin:0px;margin-left:4px;&quot;&gt;- lendId : int&lt;/p&gt;&lt;p style=&quot;margin:0px;margin-left:4px;&quot;&gt;- bookcode : int&lt;/p&gt;&lt;p style=&quot;margin:0px;margin-left:4px;&quot;&gt;- id : String&lt;/p&gt;&lt;p style=&quot;margin:0px;margin-left:4px;&quot;&gt;- lendDate : Date&lt;/p&gt;&lt;p style=&quot;margin:0px;margin-left:4px;&quot;&gt;- returnDate : Date&lt;/p&gt;&lt;hr size=&quot;1&quot;&gt;&lt;p style=&quot;margin:0px;margin-left:4px;&quot;&gt;&lt;br&gt;&lt;/p&gt;" style="verticalAlign=top;align=left;overflow=fill;fontSize=12;fontFamily=Helvetica;html=1;whiteSpace=wrap;" parent="mxSxCT3K7TG5ama-A4u--1" vertex="1">
          <mxGeometry x="755" y="157" width="160" height="140" as="geometry" />
        </mxCell>
        <mxCell id="mxSxCT3K7TG5ama-A4u--10" value="&lt;p style=&quot;margin:0px;margin-top:4px;text-align:center;&quot;&gt;&lt;b&gt;예약정보저장 Class&lt;/b&gt;&lt;/p&gt;&lt;hr size=&quot;1&quot;&gt;&lt;p style=&quot;margin:0px;margin-left:4px;&quot;&gt;+ field: Type&lt;/p&gt;&lt;hr size=&quot;1&quot;&gt;&lt;p style=&quot;margin:0px;margin-left:4px;&quot;&gt;+ method(): Type&lt;/p&gt;" style="verticalAlign=top;align=left;overflow=fill;fontSize=12;fontFamily=Helvetica;html=1;whiteSpace=wrap;" parent="mxSxCT3K7TG5ama-A4u--1" vertex="1">
          <mxGeometry x="1130" y="168.5" width="160" height="90" as="geometry" />
        </mxCell>
        <mxCell id="mxSxCT3K7TG5ama-A4u--12" value="DB CRUD 클래스 만들기(DBTable참고)" style="text;html=1;align=center;verticalAlign=middle;resizable=0;points=[];autosize=1;strokeColor=none;fillColor=none;" parent="mxSxCT3K7TG5ama-A4u--1" vertex="1">
          <mxGeometry x="72.5" y="310" width="230" height="30" as="geometry" />
        </mxCell>
        <mxCell id="mxSxCT3K7TG5ama-A4u--13" value="&lt;p style=&quot;margin:0px;margin-top:4px;text-align:center;&quot;&gt;&lt;b&gt;BookDao&lt;/b&gt;&lt;/p&gt;&lt;hr size=&quot;1&quot;&gt;&lt;p style=&quot;margin:0px;margin-left:4px;&quot;&gt;- id : String&lt;/p&gt;&lt;p style=&quot;margin:0px;margin-left:4px;&quot;&gt;- pw : String&lt;/p&gt;&lt;p style=&quot;margin:0px;margin-left:4px;&quot;&gt;- url : String&lt;/p&gt;&lt;p style=&quot;margin:0px;margin-left:4px;&quot;&gt;- conn : Connection&lt;/p&gt;&lt;p style=&quot;margin:0px;margin-left:4px;&quot;&gt;- pstmt : PreparedStatement&lt;/p&gt;&lt;p style=&quot;margin:0px;margin-left:4px;&quot;&gt;- rs : ResultSet&lt;/p&gt;&lt;hr size=&quot;1&quot;&gt;&lt;p style=&quot;margin:0px;margin-left:4px;&quot;&gt;&lt;span style=&quot;background-color: initial;&quot;&gt;+select() : List&amp;lt;BookDto&amp;gt;&lt;/span&gt;&lt;br&gt;&lt;/p&gt;&lt;p style=&quot;margin:0px;margin-left:4px;&quot;&gt;&lt;span style=&quot;background-color: initial;&quot;&gt;+select(int bookcode): List&amp;lt;BookDto&amp;gt;&lt;/span&gt;&lt;/p&gt;&lt;p style=&quot;margin:0px;margin-left:4px;&quot;&gt;+insert(BookDto dto):int&lt;/p&gt;&lt;p style=&quot;margin:0px;margin-left:4px;&quot;&gt;+update(BookDto dto):int&lt;/p&gt;&lt;p style=&quot;margin:0px;margin-left:4px;&quot;&gt;+delete(int bookcode):int&lt;/p&gt;&lt;p style=&quot;margin:0px;margin-left:4px;&quot;&gt;&lt;br&gt;&lt;/p&gt;&lt;p style=&quot;margin:0px;margin-left:4px;&quot;&gt;&lt;br&gt;&lt;/p&gt;" style="verticalAlign=top;align=left;overflow=fill;fontSize=12;fontFamily=Helvetica;html=1;whiteSpace=wrap;" parent="mxSxCT3K7TG5ama-A4u--1" vertex="1">
          <mxGeometry x="77.5" y="372" width="215" height="210" as="geometry" />
        </mxCell>
        <mxCell id="mxSxCT3K7TG5ama-A4u--14" value="&lt;p style=&quot;margin:0px;margin-top:4px;text-align:center;&quot;&gt;&lt;b&gt;MemberDao Class&lt;/b&gt;&lt;/p&gt;&lt;hr size=&quot;1&quot;&gt;&lt;p style=&quot;border-color: var(--border-color); margin: 0px 0px 0px 4px;&quot;&gt;- id : String&lt;/p&gt;&lt;p style=&quot;border-color: var(--border-color); margin: 0px 0px 0px 4px;&quot;&gt;- pw : String&lt;/p&gt;&lt;p style=&quot;border-color: var(--border-color); margin: 0px 0px 0px 4px;&quot;&gt;- url : String&lt;/p&gt;&lt;p style=&quot;border-color: var(--border-color); margin: 0px 0px 0px 4px;&quot;&gt;- conn : Connection&lt;/p&gt;&lt;p style=&quot;border-color: var(--border-color); margin: 0px 0px 0px 4px;&quot;&gt;- pstmt : PreparedStatement&lt;/p&gt;&lt;p style=&quot;border-color: var(--border-color); margin: 0px 0px 0px 4px;&quot;&gt;- rs : ResultSet&lt;/p&gt;&lt;hr size=&quot;1&quot;&gt;&lt;p style=&quot;border-color: var(--border-color); margin: 0px 0px 0px 4px;&quot;&gt;+select() : List&amp;lt;MemberDto&amp;gt;&lt;br style=&quot;border-color: var(--border-color);&quot;&gt;&lt;/p&gt;&lt;p style=&quot;border-color: var(--border-color); margin: 0px 0px 0px 4px;&quot;&gt;+insert(MemberDto dto):int&lt;/p&gt;&lt;p style=&quot;border-color: var(--border-color); margin: 0px 0px 0px 4px;&quot;&gt;+update(MemberDto dto):int&lt;/p&gt;&lt;p style=&quot;border-color: var(--border-color); margin: 0px 0px 0px 4px;&quot;&gt;+delete(String id):int&lt;/p&gt;&lt;p style=&quot;border-color: var(--border-color); margin: 0px 0px 0px 4px;&quot;&gt;&lt;br&gt;&lt;/p&gt;" style="verticalAlign=top;align=left;overflow=fill;fontSize=12;fontFamily=Helvetica;html=1;whiteSpace=wrap;" parent="mxSxCT3K7TG5ama-A4u--1" vertex="1">
          <mxGeometry x="397.5" y="370" width="195" height="210" as="geometry" />
        </mxCell>
        <mxCell id="mxSxCT3K7TG5ama-A4u--15" value="&lt;p style=&quot;margin:0px;margin-top:4px;text-align:center;&quot;&gt;&lt;b&gt;LendDao&lt;/b&gt;&lt;/p&gt;&lt;hr size=&quot;1&quot;&gt;&lt;p style=&quot;border-color: var(--border-color); margin: 0px 0px 0px 4px;&quot;&gt;- id : String&lt;/p&gt;&lt;p style=&quot;border-color: var(--border-color); margin: 0px 0px 0px 4px;&quot;&gt;- pw : String&lt;/p&gt;&lt;p style=&quot;border-color: var(--border-color); margin: 0px 0px 0px 4px;&quot;&gt;- url : String&lt;/p&gt;&lt;p style=&quot;border-color: var(--border-color); margin: 0px 0px 0px 4px;&quot;&gt;- conn : Connection&lt;/p&gt;&lt;p style=&quot;border-color: var(--border-color); margin: 0px 0px 0px 4px;&quot;&gt;- pstmt : PreparedStatement&lt;/p&gt;&lt;p style=&quot;border-color: var(--border-color); margin: 0px 0px 0px 4px;&quot;&gt;- rs : ResultSet&lt;/p&gt;&lt;hr size=&quot;1&quot;&gt;&lt;p style=&quot;border-color: var(--border-color); margin: 0px 0px 0px 4px;&quot;&gt;+select() : List&amp;lt;LendDto&amp;gt;&lt;br style=&quot;border-color: var(--border-color);&quot;&gt;&lt;/p&gt;&lt;p style=&quot;border-color: var(--border-color); margin: 0px 0px 0px 4px;&quot;&gt;+insert(LendDto dto):int&lt;/p&gt;&lt;p style=&quot;border-color: var(--border-color); margin: 0px 0px 0px 4px;&quot;&gt;+update(LendDto dto):int&lt;/p&gt;&lt;p style=&quot;border-color: var(--border-color); margin: 0px 0px 0px 4px;&quot;&gt;+delete(int id):int&lt;/p&gt;" style="verticalAlign=top;align=left;overflow=fill;fontSize=12;fontFamily=Helvetica;html=1;whiteSpace=wrap;" parent="mxSxCT3K7TG5ama-A4u--1" vertex="1">
          <mxGeometry x="750" y="372" width="192.5" height="228" as="geometry" />
        </mxCell>
        <mxCell id="mxSxCT3K7TG5ama-A4u--16" value="&lt;p style=&quot;margin:0px;margin-top:4px;text-align:center;&quot;&gt;&lt;b&gt;예약테이블 CRUD Class&lt;/b&gt;&lt;/p&gt;&lt;hr size=&quot;1&quot;&gt;&lt;p style=&quot;margin:0px;margin-left:4px;&quot;&gt;+ field: Type&lt;/p&gt;&lt;hr size=&quot;1&quot;&gt;&lt;p style=&quot;margin:0px;margin-left:4px;&quot;&gt;+ method(): Type&lt;/p&gt;" style="verticalAlign=top;align=left;overflow=fill;fontSize=12;fontFamily=Helvetica;html=1;whiteSpace=wrap;" parent="mxSxCT3K7TG5ama-A4u--1" vertex="1">
          <mxGeometry x="1110" y="371.5" width="160" height="140" as="geometry" />
        </mxCell>
        <mxCell id="mxSxCT3K7TG5ama-A4u--20" value="도서&lt;br&gt;테이블" style="shape=cylinder3;whiteSpace=wrap;html=1;boundedLbl=1;backgroundOutline=1;size=15;" parent="mxSxCT3K7TG5ama-A4u--1" vertex="1">
          <mxGeometry x="323.5" y="394" width="50" height="70" as="geometry" />
        </mxCell>
        <mxCell id="mxSxCT3K7TG5ama-A4u--21" value="회원&lt;br&gt;테이블" style="shape=cylinder3;whiteSpace=wrap;html=1;boundedLbl=1;backgroundOutline=1;size=15;" parent="mxSxCT3K7TG5ama-A4u--1" vertex="1">
          <mxGeometry x="635" y="391.5" width="50" height="70" as="geometry" />
        </mxCell>
        <mxCell id="mxSxCT3K7TG5ama-A4u--22" value="대여&lt;br&gt;테이블" style="shape=cylinder3;whiteSpace=wrap;html=1;boundedLbl=1;backgroundOutline=1;size=15;" parent="mxSxCT3K7TG5ama-A4u--1" vertex="1">
          <mxGeometry x="997.5" y="391.5" width="50" height="70" as="geometry" />
        </mxCell>
        <mxCell id="mxSxCT3K7TG5ama-A4u--23" value="예약&lt;br&gt;테이블" style="shape=cylinder3;whiteSpace=wrap;html=1;boundedLbl=1;backgroundOutline=1;size=15;" parent="mxSxCT3K7TG5ama-A4u--1" vertex="1">
          <mxGeometry x="1295" y="391.5" width="50" height="70" as="geometry" />
        </mxCell>
        <mxCell id="mxSxCT3K7TG5ama-A4u--24" value="Presentation Layer(프레젠테이션 계층)&lt;br&gt;- 사용자의 요청사항을 받아서 해당 서비스로 연결해주고 처리 결과를 사용자에게 알려주는 영역" style="rounded=0;whiteSpace=wrap;html=1;" parent="mxSxCT3K7TG5ama-A4u--1" vertex="1">
          <mxGeometry x="30" y="1330" width="1300" height="50" as="geometry" />
        </mxCell>
        <mxCell id="mxSxCT3K7TG5ama-A4u--25" value="Dto" style="text;html=1;align=center;verticalAlign=middle;resizable=0;points=[];autosize=1;strokeColor=none;fillColor=none;" parent="mxSxCT3K7TG5ama-A4u--1" vertex="1">
          <mxGeometry x="287.5" y="88" width="40" height="30" as="geometry" />
        </mxCell>
        <mxCell id="mxSxCT3K7TG5ama-A4u--26" value="Dao" style="text;html=1;align=center;verticalAlign=middle;resizable=0;points=[];autosize=1;strokeColor=none;fillColor=none;" parent="mxSxCT3K7TG5ama-A4u--1" vertex="1">
          <mxGeometry x="287.5" y="310" width="50" height="30" as="geometry" />
        </mxCell>
        <mxCell id="mxSxCT3K7TG5ama-A4u--49" value="Business Layer(비지니스 계층 )&lt;br&gt;중요! 사용자의 요구사항을 처리하는 영역" style="rounded=0;whiteSpace=wrap;html=1;" parent="mxSxCT3K7TG5ama-A4u--1" vertex="1">
          <mxGeometry x="30" y="610" width="1300" height="50" as="geometry" />
        </mxCell>
        <mxCell id="mxSxCT3K7TG5ama-A4u--51" value="BookDto" style="text;html=1;align=center;verticalAlign=middle;resizable=0;points=[];autosize=1;strokeColor=none;fillColor=none;" parent="mxSxCT3K7TG5ama-A4u--1" vertex="1">
          <mxGeometry x="67.5" y="116" width="70" height="30" as="geometry" />
        </mxCell>
        <mxCell id="mxSxCT3K7TG5ama-A4u--52" value="MemberDto" style="text;html=1;align=center;verticalAlign=middle;resizable=0;points=[];autosize=1;strokeColor=none;fillColor=none;" parent="mxSxCT3K7TG5ama-A4u--1" vertex="1">
          <mxGeometry x="385" y="118" width="90" height="30" as="geometry" />
        </mxCell>
        <mxCell id="mxSxCT3K7TG5ama-A4u--53" value="LendDto" style="text;html=1;align=center;verticalAlign=middle;resizable=0;points=[];autosize=1;strokeColor=none;fillColor=none;" parent="mxSxCT3K7TG5ama-A4u--1" vertex="1">
          <mxGeometry x="750" y="125" width="70" height="30" as="geometry" />
        </mxCell>
        <mxCell id="mxSxCT3K7TG5ama-A4u--54" value="ReservationDto" style="text;html=1;align=center;verticalAlign=middle;resizable=0;points=[];autosize=1;strokeColor=none;fillColor=none;" parent="mxSxCT3K7TG5ama-A4u--1" vertex="1">
          <mxGeometry x="1130" y="138.5" width="110" height="30" as="geometry" />
        </mxCell>
        <mxCell id="mxSxCT3K7TG5ama-A4u--55" value="BookDao" style="text;html=1;align=center;verticalAlign=middle;resizable=0;points=[];autosize=1;strokeColor=none;fillColor=none;" parent="mxSxCT3K7TG5ama-A4u--1" vertex="1">
          <mxGeometry x="120" y="340" width="70" height="30" as="geometry" />
        </mxCell>
        <mxCell id="mxSxCT3K7TG5ama-A4u--56" value="MemberDao" style="text;html=1;align=center;verticalAlign=middle;resizable=0;points=[];autosize=1;strokeColor=none;fillColor=none;" parent="mxSxCT3K7TG5ama-A4u--1" vertex="1">
          <mxGeometry x="385" y="340" width="90" height="30" as="geometry" />
        </mxCell>
        <mxCell id="mxSxCT3K7TG5ama-A4u--57" value="LendDao" style="text;html=1;align=center;verticalAlign=middle;resizable=0;points=[];autosize=1;strokeColor=none;fillColor=none;" parent="mxSxCT3K7TG5ama-A4u--1" vertex="1">
          <mxGeometry x="750" y="342" width="70" height="30" as="geometry" />
        </mxCell>
        <mxCell id="mxSxCT3K7TG5ama-A4u--74" value="" style="endArrow=none;html=1;rounded=0;exitX=0.992;exitY=0.372;exitDx=0;exitDy=0;exitPerimeter=0;entryX=0;entryY=0.5;entryDx=0;entryDy=0;entryPerimeter=0;" parent="mxSxCT3K7TG5ama-A4u--1" source="mxSxCT3K7TG5ama-A4u--13" target="mxSxCT3K7TG5ama-A4u--20" edge="1">
          <mxGeometry width="50" height="50" relative="1" as="geometry">
            <mxPoint x="672.5" y="480" as="sourcePoint" />
            <mxPoint x="312.5" y="430" as="targetPoint" />
          </mxGeometry>
        </mxCell>
        <mxCell id="uUN0JreGpxQyzx7cYkG8-0" value="&lt;p style=&quot;margin:0px;margin-top:4px;text-align:center;&quot;&gt;&lt;b&gt;BookDto&lt;/b&gt;&lt;/p&gt;&lt;hr size=&quot;1&quot;&gt;&lt;p style=&quot;border-color: var(--border-color); margin: 0px 0px 0px 4px;&quot;&gt;- bookCode : int&lt;/p&gt;&lt;p style=&quot;border-color: var(--border-color); margin: 0px 0px 0px 4px;&quot;&gt;- bookName : String&lt;/p&gt;&lt;p style=&quot;border-color: var(--border-color); margin: 0px 0px 0px 4px;&quot;&gt;- publisher : String&lt;/p&gt;&lt;p style=&quot;border-color: var(--border-color); margin: 0px 0px 0px 4px;&quot;&gt;- isbn : String&lt;/p&gt;&lt;hr style=&quot;border-color: var(--border-color);&quot; size=&quot;1&quot;&gt;&lt;p style=&quot;margin:0px;margin-left:4px;&quot;&gt;&lt;br&gt;&lt;/p&gt;" style="verticalAlign=top;align=left;overflow=fill;fontSize=12;fontFamily=Helvetica;html=1;whiteSpace=wrap;" parent="mxSxCT3K7TG5ama-A4u--1" vertex="1">
          <mxGeometry x="80" y="148" width="160" height="126" as="geometry" />
        </mxCell>
        <mxCell id="t59o9ctawvTFQCCQ3Xlg-0" value="" style="endArrow=none;html=1;rounded=0;exitX=1;exitY=0.311;exitDx=0;exitDy=0;exitPerimeter=0;entryX=0;entryY=0.5;entryDx=0;entryDy=0;entryPerimeter=0;" parent="mxSxCT3K7TG5ama-A4u--1" source="mxSxCT3K7TG5ama-A4u--14" target="mxSxCT3K7TG5ama-A4u--21" edge="1">
          <mxGeometry width="50" height="50" relative="1" as="geometry">
            <mxPoint x="295.5" y="463" as="sourcePoint" />
            <mxPoint x="333.5" y="439" as="targetPoint" />
          </mxGeometry>
        </mxCell>
        <mxCell id="OU57nUUuY7m4evFxqROr-0" value="" style="endArrow=none;html=1;rounded=0;exitX=1.031;exitY=0.294;exitDx=0;exitDy=0;exitPerimeter=0;entryX=0;entryY=0.5;entryDx=0;entryDy=0;entryPerimeter=0;" parent="mxSxCT3K7TG5ama-A4u--1" source="mxSxCT3K7TG5ama-A4u--15" target="mxSxCT3K7TG5ama-A4u--22" edge="1">
          <mxGeometry width="50" height="50" relative="1" as="geometry">
            <mxPoint x="575.5" y="445" as="sourcePoint" />
            <mxPoint x="617.5" y="437" as="targetPoint" />
          </mxGeometry>
        </mxCell>
        <mxCell id="v-Hk2H7jR2KbCjhzF-S7-0" value="서비스형 클래스 만들기" style="text;html=1;align=center;verticalAlign=middle;resizable=0;points=[];autosize=1;strokeColor=none;fillColor=none;" parent="mxSxCT3K7TG5ama-A4u--1" vertex="1">
          <mxGeometry x="90" y="720" width="150" height="30" as="geometry" />
        </mxCell>
        <mxCell id="v-Hk2H7jR2KbCjhzF-S7-2" value="&lt;p style=&quot;margin:0px;margin-top:4px;text-align:center;&quot;&gt;&lt;b&gt;인증서비스 Class&lt;/b&gt;&lt;/p&gt;&lt;hr size=&quot;1&quot;&gt;&lt;p style=&quot;margin:0px;margin-left:4px;&quot;&gt;- userId : String&lt;br&gt;- userPassword : String&lt;/p&gt;&lt;p style=&quot;margin:0px;margin-left:4px;&quot;&gt;&lt;span style=&quot;background-color: initial;&quot;&gt;- userBirth : Date&lt;/span&gt;&lt;/p&gt;&lt;p style=&quot;margin:0px;margin-left:4px;&quot;&gt;&lt;span style=&quot;background-color: initial;&quot;&gt;- userAddress : String&lt;br&gt;- userEmail : String&lt;/span&gt;&lt;/p&gt;&lt;p style=&quot;margin:0px;margin-left:4px;&quot;&gt;&lt;span style=&quot;background-color: initial;&quot;&gt;- userContact : String&lt;/span&gt;&lt;span style=&quot;background-color: initial;&quot;&gt;&amp;nbsp;&lt;/span&gt;&lt;/p&gt;&lt;hr size=&quot;1&quot;&gt;&lt;p style=&quot;margin:0px;margin-left:4px;&quot;&gt;+ createUser() : boolean&lt;/p&gt;&lt;p style=&quot;margin:0px;margin-left:4px;&quot;&gt;+ updateUser() : boolean&lt;/p&gt;&lt;p style=&quot;margin:0px;margin-left:4px;&quot;&gt;+ findUser() : String&lt;/p&gt;&lt;p style=&quot;margin:0px;margin-left:4px;&quot;&gt;+ deleteUser&lt;span style=&quot;background-color: initial;&quot;&gt;()&lt;/span&gt;&lt;span style=&quot;background-color: initial;&quot;&gt;&amp;nbsp;: boolean&lt;/span&gt;&lt;/p&gt;&lt;p style=&quot;margin:0px;margin-left:4px;&quot;&gt;&lt;br&gt;+ loginUser&lt;span style=&quot;background-color: initial;&quot;&gt;()&lt;/span&gt;&lt;span style=&quot;background-color: initial;&quot;&gt;&amp;nbsp;: boolean&lt;/span&gt;&lt;/p&gt;&lt;p style=&quot;margin:0px;margin-left:4px;&quot;&gt;&lt;/p&gt;&lt;div style=&quot;text-align: left;&quot;&gt;&amp;nbsp;+ loginAdministrator&lt;span style=&quot;background-color: initial;&quot;&gt;()&lt;/span&gt;&lt;span style=&quot;background-color: initial;&quot;&gt;&amp;nbsp;: boolean&lt;/span&gt;&lt;/div&gt;&lt;div style=&quot;text-align: left;&quot;&gt;&amp;nbsp;+ logout&lt;span style=&quot;background-color: initial;&quot;&gt;()&lt;/span&gt;&lt;span style=&quot;background-color: initial;&quot;&gt;&amp;nbsp;: boolean&lt;/span&gt;&lt;/div&gt;&lt;br style=&quot;border-color: var(--border-color); text-align: center;&quot;&gt;&lt;br&gt;&lt;p&gt;&lt;/p&gt;" style="verticalAlign=top;align=left;overflow=fill;fontSize=12;fontFamily=Helvetica;html=1;whiteSpace=wrap;shadow=1;" parent="mxSxCT3K7TG5ama-A4u--1" vertex="1">
          <mxGeometry x="183.5" y="760" width="190" height="320" as="geometry" />
        </mxCell>
        <mxCell id="v-Hk2H7jR2KbCjhzF-S7-4" value="&lt;p style=&quot;margin:0px;margin-top:4px;text-align:center;&quot;&gt;&lt;b&gt;알림 서비스 Class&lt;/b&gt;&lt;/p&gt;&lt;hr size=&quot;1&quot;&gt;&lt;p style=&quot;margin:0px;margin-left:4px;&quot;&gt;+ projectId: String&lt;/p&gt;&lt;p style=&quot;margin:0px;margin-left:4px;&quot;&gt;+ userId : String&lt;br&gt;+ userContact : String&lt;br&gt;+ openingDate : Date&lt;br&gt;&lt;br&gt;&lt;/p&gt;&lt;hr size=&quot;1&quot;&gt;&lt;p style=&quot;margin:0px;margin-left:4px;&quot;&gt;+ registerAlarm&lt;span style=&quot;background-color: initial;&quot;&gt;()&lt;/span&gt;&lt;span style=&quot;background-color: initial;&quot;&gt;&amp;nbsp;: boolean&lt;/span&gt;&lt;/p&gt;&lt;p style=&quot;margin:0px;margin-left:4px;&quot;&gt;+ deleteAlarm&lt;span style=&quot;background-color: initial;&quot;&gt;()&lt;/span&gt;&lt;span style=&quot;background-color: initial;&quot;&gt;&amp;nbsp;: boolean&lt;/span&gt;&lt;/p&gt;&lt;p style=&quot;margin:0px;margin-left:4px;&quot;&gt;&lt;br&gt;&lt;/p&gt;" style="verticalAlign=top;align=left;overflow=fill;fontSize=12;fontFamily=Helvetica;html=1;whiteSpace=wrap;shadow=1;" parent="mxSxCT3K7TG5ama-A4u--1" vertex="1">
          <mxGeometry x="405" y="760" width="160" height="160" as="geometry" />
        </mxCell>
        <mxCell id="v-Hk2H7jR2KbCjhzF-S7-5" value="Service" style="text;html=1;align=center;verticalAlign=middle;resizable=0;points=[];autosize=1;strokeColor=none;fillColor=none;" parent="mxSxCT3K7TG5ama-A4u--1" vertex="1">
          <mxGeometry x="90" y="750" width="60" height="30" as="geometry" />
        </mxCell>
        <mxCell id="KW0IFtiiwQ5vjCWQNFQy-0" value="&lt;p style=&quot;margin:0px;margin-top:4px;text-align:center;&quot;&gt;&lt;b&gt;주문 서비스 Class&lt;/b&gt;&lt;/p&gt;&lt;hr size=&quot;1&quot;&gt;&lt;p style=&quot;margin:0px;margin-left:4px;&quot;&gt;+ orderId : Int&lt;/p&gt;&lt;p style=&quot;margin:0px;margin-left:4px;&quot;&gt;+ orderDate : Date&lt;/p&gt;&lt;p style=&quot;margin:0px;margin-left:4px;&quot;&gt;+ clientName : String&lt;/p&gt;&lt;p style=&quot;margin:0px;margin-left:4px;&quot;&gt;+ address : String&lt;/p&gt;&lt;p style=&quot;margin:0px;margin-left:4px;&quot;&gt;+ contact : String&lt;/p&gt;&lt;p style=&quot;margin:0px;margin-left:4px;&quot;&gt;+ tatalCost : Int&lt;/p&gt;&lt;p style=&quot;margin:0px;margin-left:4px;&quot;&gt;+ paymentMethod : String&lt;/p&gt;&lt;p style=&quot;margin:0px;margin-left:4px;&quot;&gt;+ orderDetail : String&lt;/p&gt;&lt;hr size=&quot;1&quot;&gt;&lt;p style=&quot;margin:0px;margin-left:4px;&quot;&gt;+ orderApply() : boolean&lt;span style=&quot;background-color: initial;&quot;&gt;&amp;nbsp;&lt;/span&gt;&lt;/p&gt;&lt;p style=&quot;margin:0px;margin-left:4px;&quot;&gt;&lt;br&gt;&lt;/p&gt;" style="verticalAlign=top;align=left;overflow=fill;fontSize=12;fontFamily=Helvetica;html=1;whiteSpace=wrap;shadow=1;" parent="mxSxCT3K7TG5ama-A4u--1" vertex="1">
          <mxGeometry x="595" y="760" width="160" height="180" as="geometry" />
        </mxCell>
        <mxCell id="4iufTsSp4Iph0FAsAa8I-0" value="&lt;p style=&quot;margin:0px;margin-top:4px;text-align:center;&quot;&gt;&lt;b&gt;결제 서비스 Class&lt;/b&gt;&lt;/p&gt;&lt;hr size=&quot;1&quot;&gt;&lt;p style=&quot;margin:0px;margin-left:4px;&quot;&gt;+ paymentStatus : String&lt;/p&gt;&lt;p style=&quot;margin:0px;margin-left:4px;&quot;&gt;+ paymentMethod : String&lt;br&gt;&lt;/p&gt;&lt;p style=&quot;margin:0px;margin-left:4px;&quot;&gt;&lt;br&gt;&lt;/p&gt;&lt;hr size=&quot;1&quot;&gt;&lt;p style=&quot;margin:0px;margin-left:4px;&quot;&gt;+ payment&lt;span style=&quot;background-color: initial;&quot;&gt;()&lt;/span&gt;&lt;span style=&quot;background-color: initial;&quot;&gt;&amp;nbsp;: boolean&lt;/span&gt;&lt;/p&gt;&lt;p style=&quot;margin:0px;margin-left:4px;&quot;&gt;&lt;br&gt;&lt;/p&gt;&lt;p style=&quot;margin:0px;margin-left:4px;&quot;&gt;&lt;br&gt;&lt;/p&gt;" style="verticalAlign=top;align=left;overflow=fill;fontSize=12;fontFamily=Helvetica;html=1;whiteSpace=wrap;shadow=1;" parent="mxSxCT3K7TG5ama-A4u--1" vertex="1">
          <mxGeometry x="790" y="760" width="160" height="160" as="geometry" />
        </mxCell>
        <mxCell id="UAAGlxL8E-bhWDBI-pss-0" value="" style="rounded=0;whiteSpace=wrap;html=1;" parent="mxSxCT3K7TG5ama-A4u--1" vertex="1">
          <mxGeometry x="500" y="1420" width="670" height="870" as="geometry" />
        </mxCell>
        <mxCell id="UAAGlxL8E-bhWDBI-pss-1" value="" style="rounded=0;whiteSpace=wrap;html=1;" parent="mxSxCT3K7TG5ama-A4u--1" vertex="1">
          <mxGeometry x="930" y="1470" width="220" height="720" as="geometry" />
        </mxCell>
        <mxCell id="UAAGlxL8E-bhWDBI-pss-2" value="View" style="text;html=1;align=center;verticalAlign=middle;resizable=0;points=[];autosize=1;strokeColor=none;fillColor=none;" parent="mxSxCT3K7TG5ama-A4u--1" vertex="1">
          <mxGeometry x="27.5" y="1390" width="50" height="30" as="geometry" />
        </mxCell>
        <mxCell id="UAAGlxL8E-bhWDBI-pss-3" value="" style="rounded=0;whiteSpace=wrap;html=1;" parent="mxSxCT3K7TG5ama-A4u--1" vertex="1">
          <mxGeometry x="30" y="1420" width="450" height="870" as="geometry" />
        </mxCell>
        <mxCell id="UAAGlxL8E-bhWDBI-pss-4" value="Controller" style="text;html=1;align=center;verticalAlign=middle;resizable=0;points=[];autosize=1;strokeColor=none;fillColor=none;" parent="mxSxCT3K7TG5ama-A4u--1" vertex="1">
          <mxGeometry x="500" y="1390" width="80" height="30" as="geometry" />
        </mxCell>
        <mxCell id="UAAGlxL8E-bhWDBI-pss-5" value="&lt;p style=&quot;margin:0px;margin-top:4px;text-align:center;&quot;&gt;&lt;b&gt;FrontController Class&lt;/b&gt;&lt;/p&gt;&lt;hr size=&quot;1&quot;&gt;&lt;p style=&quot;margin:0px;margin-left:4px;&quot;&gt;+ field: Type&lt;br&gt;- userId: String&lt;br&gt;- userPassword : String&lt;br&gt;&lt;/p&gt;&lt;p style=&quot;margin:0px;margin-left:4px;&quot;&gt;+ projectId : Int&lt;br&gt;+ projectName : String&lt;br&gt;+ projectImage : String&lt;br&gt;&lt;/p&gt;&lt;p style=&quot;margin: 0px 0px 0px 4px;&quot;&gt;+ category: String&lt;/p&gt;&lt;p style=&quot;margin: 0px 0px 0px 4px;&quot;&gt;+ projectId : Int&lt;/p&gt;&lt;p style=&quot;margin: 0px 0px 0px 4px;&quot;&gt;+ projectName : String&lt;/p&gt;&lt;p style=&quot;margin: 0px 0px 0px 4px;&quot;&gt;+ projectImage : String&lt;/p&gt;&lt;hr size=&quot;1&quot;&gt;&lt;p style=&quot;margin:0px;margin-left:4px;&quot;&gt;+ loginUser(): boolean&lt;br&gt;&lt;/p&gt;&lt;p style=&quot;margin:0px;margin-left:4px;&quot;&gt;+ searchProject(): List&amp;lt;Project&amp;gt;&lt;br&gt;&lt;/p&gt;" style="verticalAlign=top;align=left;overflow=fill;fontSize=12;fontFamily=Helvetica;html=1;whiteSpace=wrap;shadow=1;" parent="mxSxCT3K7TG5ama-A4u--1" vertex="1">
          <mxGeometry x="570" y="1720" width="180" height="290" as="geometry" />
        </mxCell>
        <mxCell id="UAAGlxL8E-bhWDBI-pss-6" value="" style="rounded=0;whiteSpace=wrap;html=1;" parent="mxSxCT3K7TG5ama-A4u--1" vertex="1">
          <mxGeometry x="35" y="1460" width="415" height="380" as="geometry" />
        </mxCell>
        <mxCell id="UAAGlxL8E-bhWDBI-pss-7" value="회원 Viewer" style="text;html=1;align=center;verticalAlign=middle;resizable=0;points=[];autosize=1;strokeColor=none;fillColor=none;" parent="mxSxCT3K7TG5ama-A4u--1" vertex="1">
          <mxGeometry x="25" y="1430" width="90" height="30" as="geometry" />
        </mxCell>
        <mxCell id="UAAGlxL8E-bhWDBI-pss-8" value="" style="rounded=0;whiteSpace=wrap;html=1;" parent="mxSxCT3K7TG5ama-A4u--1" vertex="1">
          <mxGeometry x="35" y="1870" width="415" height="380" as="geometry" />
        </mxCell>
        <mxCell id="UAAGlxL8E-bhWDBI-pss-9" value="관리자 Viewer" style="text;html=1;align=center;verticalAlign=middle;resizable=0;points=[];autosize=1;strokeColor=none;fillColor=none;" parent="mxSxCT3K7TG5ama-A4u--1" vertex="1">
          <mxGeometry x="20" y="1840" width="100" height="30" as="geometry" />
        </mxCell>
        <mxCell id="UAAGlxL8E-bhWDBI-pss-10" value="&lt;p style=&quot;margin:0px;margin-top:4px;text-align:center;&quot;&gt;&lt;b&gt;로그인화면 Class&lt;/b&gt;&lt;/p&gt;&lt;hr size=&quot;1&quot;&gt;&lt;p style=&quot;margin:0px;margin-left:4px;&quot;&gt;- userId: String&lt;br&gt;- userPassword : String&lt;/p&gt;&lt;hr size=&quot;1&quot;&gt;&lt;p style=&quot;margin:0px;margin-left:4px;&quot;&gt;+ loginUser(): boolean&lt;/p&gt;" style="verticalAlign=top;align=left;overflow=fill;fontSize=12;fontFamily=Helvetica;html=1;whiteSpace=wrap;shadow=1;" parent="mxSxCT3K7TG5ama-A4u--1" vertex="1">
          <mxGeometry x="55" y="1495" width="175" height="110" as="geometry" />
        </mxCell>
        <mxCell id="UAAGlxL8E-bhWDBI-pss-11" value="&lt;p style=&quot;margin:0px;margin-top:4px;text-align:center;&quot;&gt;&lt;b&gt;메인 화면 Class&lt;/b&gt;&lt;/p&gt;&lt;hr size=&quot;1&quot;&gt;&lt;p style=&quot;margin:0px;margin-left:4px;&quot;&gt;+ category: String&lt;/p&gt;&lt;p style=&quot;margin:0px;margin-left:4px;&quot;&gt;+ projectId : Int&lt;/p&gt;&lt;p style=&quot;margin:0px;margin-left:4px;&quot;&gt;+ projectName : String&lt;/p&gt;&lt;p style=&quot;margin:0px;margin-left:4px;&quot;&gt;+ projectImage : String&lt;/p&gt;&lt;hr size=&quot;1&quot;&gt;&lt;p style=&quot;margin:0px;margin-left:4px;&quot;&gt;+ searchProject(): List&amp;lt;Project&amp;gt;&lt;/p&gt;" style="verticalAlign=top;align=left;overflow=fill;fontSize=12;fontFamily=Helvetica;html=1;whiteSpace=wrap;shadow=1;" parent="mxSxCT3K7TG5ama-A4u--1" vertex="1">
          <mxGeometry x="257.75" y="1590" width="181.5" height="130" as="geometry" />
        </mxCell>
        <mxCell id="UAAGlxL8E-bhWDBI-pss-12" value="&lt;p style=&quot;margin:0px;margin-top:4px;text-align:center;&quot;&gt;&lt;b&gt;프로젝트 검색 결과 Class&lt;/b&gt;&lt;/p&gt;&lt;hr size=&quot;1&quot;&gt;&lt;p style=&quot;margin:0px;margin-left:4px;&quot;&gt;+ projectId : Int&lt;br&gt;+ projectName : String&lt;br&gt;+ projectImage : String&lt;/p&gt;&lt;hr size=&quot;1&quot;&gt;&lt;p style=&quot;margin:0px;margin-left:4px;&quot;&gt;+ searchProject(): List&amp;lt;Project&amp;gt;&lt;/p&gt;" style="verticalAlign=top;align=left;overflow=fill;fontSize=12;fontFamily=Helvetica;html=1;whiteSpace=wrap;shadow=1;" parent="mxSxCT3K7TG5ama-A4u--1" vertex="1">
          <mxGeometry x="55" y="1700" width="180" height="110" as="geometry" />
        </mxCell>
        <mxCell id="UAAGlxL8E-bhWDBI-pss-13" value="&lt;p style=&quot;margin:0px;margin-top:4px;text-align:center;&quot;&gt;&lt;b&gt;알림Controller Class&lt;/b&gt;&lt;/p&gt;&lt;hr size=&quot;1&quot;&gt;&lt;p style=&quot;margin:0px;margin-left:4px;&quot;&gt;+ field: Type&lt;/p&gt;&lt;hr size=&quot;1&quot;&gt;&lt;p style=&quot;margin:0px;margin-left:4px;&quot;&gt;+ method(): Type&lt;/p&gt;" style="verticalAlign=top;align=left;overflow=fill;fontSize=12;fontFamily=Helvetica;html=1;whiteSpace=wrap;shadow=1;" parent="mxSxCT3K7TG5ama-A4u--1" vertex="1">
          <mxGeometry x="955" y="1840" width="160" height="130" as="geometry" />
        </mxCell>
        <mxCell id="UAAGlxL8E-bhWDBI-pss-14" value="&lt;p style=&quot;margin:0px;margin-top:4px;text-align:center;&quot;&gt;&lt;b&gt;인증Controller Class&lt;/b&gt;&lt;/p&gt;&lt;hr size=&quot;1&quot;&gt;&lt;p style=&quot;margin:0px;margin-left:4px;&quot;&gt;+ field: Type&lt;/p&gt;&lt;hr size=&quot;1&quot;&gt;&lt;p style=&quot;margin:0px;margin-left:4px;&quot;&gt;1 파라미터 받기(DTO)&lt;/p&gt;&lt;p style=&quot;margin:0px;margin-left:4px;&quot;&gt;2 입력값검증(유효성검사)&lt;/p&gt;&lt;p style=&quot;margin:0px;margin-left:4px;&quot;&gt;3 인증서비스실행&lt;/p&gt;&lt;p style=&quot;margin:0px;margin-left:4px;&quot;&gt;4 View로 이동(결과값전달)&lt;/p&gt;" style="verticalAlign=top;align=left;overflow=fill;fontSize=12;fontFamily=Helvetica;html=1;whiteSpace=wrap;shadow=1;" parent="mxSxCT3K7TG5ama-A4u--1" vertex="1">
          <mxGeometry x="955" y="1485" width="160" height="130" as="geometry" />
        </mxCell>
        <mxCell id="UAAGlxL8E-bhWDBI-pss-15" value="&lt;p style=&quot;margin:0px;margin-top:4px;text-align:center;&quot;&gt;&lt;b&gt;주문Controller Class&lt;/b&gt;&lt;/p&gt;&lt;hr size=&quot;1&quot;&gt;&lt;p style=&quot;margin:0px;margin-left:4px;&quot;&gt;+ field: Type&lt;/p&gt;&lt;hr size=&quot;1&quot;&gt;&lt;p style=&quot;margin:0px;margin-left:4px;&quot;&gt;+ method(): Type&lt;/p&gt;" style="verticalAlign=top;align=left;overflow=fill;fontSize=12;fontFamily=Helvetica;html=1;whiteSpace=wrap;shadow=1;" parent="mxSxCT3K7TG5ama-A4u--1" vertex="1">
          <mxGeometry x="955" y="2020" width="160" height="130" as="geometry" />
        </mxCell>
        <mxCell id="UAAGlxL8E-bhWDBI-pss-16" value="" style="endArrow=none;html=1;rounded=0;exitX=1;exitY=0.5;exitDx=0;exitDy=0;entryX=0;entryY=0.472;entryDx=0;entryDy=0;entryPerimeter=0;" parent="mxSxCT3K7TG5ama-A4u--1" source="UAAGlxL8E-bhWDBI-pss-6" target="UAAGlxL8E-bhWDBI-pss-5" edge="1">
          <mxGeometry width="50" height="50" relative="1" as="geometry">
            <mxPoint x="580" y="1750" as="sourcePoint" />
            <mxPoint x="570" y="1850" as="targetPoint" />
          </mxGeometry>
        </mxCell>
        <mxCell id="UAAGlxL8E-bhWDBI-pss-17" value="" style="endArrow=none;html=1;rounded=0;exitX=1;exitY=0.5;exitDx=0;exitDy=0;entryX=0;entryY=0.5;entryDx=0;entryDy=0;" parent="mxSxCT3K7TG5ama-A4u--1" source="UAAGlxL8E-bhWDBI-pss-8" target="UAAGlxL8E-bhWDBI-pss-5" edge="1">
          <mxGeometry width="50" height="50" relative="1" as="geometry">
            <mxPoint x="458" y="1668" as="sourcePoint" />
            <mxPoint x="580" y="1738" as="targetPoint" />
          </mxGeometry>
        </mxCell>
        <mxCell id="UAAGlxL8E-bhWDBI-pss-18" value="" style="endArrow=none;html=1;rounded=0;exitX=1;exitY=0.5;exitDx=0;exitDy=0;entryX=0;entryY=0.5;entryDx=0;entryDy=0;" parent="mxSxCT3K7TG5ama-A4u--1" source="UAAGlxL8E-bhWDBI-pss-5" target="UAAGlxL8E-bhWDBI-pss-14" edge="1">
          <mxGeometry width="50" height="50" relative="1" as="geometry">
            <mxPoint x="458" y="1668" as="sourcePoint" />
            <mxPoint x="580" y="1858" as="targetPoint" />
          </mxGeometry>
        </mxCell>
        <mxCell id="UAAGlxL8E-bhWDBI-pss-19" value="" style="endArrow=none;html=1;rounded=0;exitX=1;exitY=0.5;exitDx=0;exitDy=0;entryX=0;entryY=0.5;entryDx=0;entryDy=0;" parent="mxSxCT3K7TG5ama-A4u--1" source="UAAGlxL8E-bhWDBI-pss-5" target="UAAGlxL8E-bhWDBI-pss-13" edge="1">
          <mxGeometry width="50" height="50" relative="1" as="geometry">
            <mxPoint x="740" y="1865" as="sourcePoint" />
            <mxPoint x="980" y="1625" as="targetPoint" />
          </mxGeometry>
        </mxCell>
        <mxCell id="UAAGlxL8E-bhWDBI-pss-20" value="" style="endArrow=none;html=1;rounded=0;exitX=1;exitY=0.5;exitDx=0;exitDy=0;entryX=0;entryY=0.5;entryDx=0;entryDy=0;" parent="mxSxCT3K7TG5ama-A4u--1" source="UAAGlxL8E-bhWDBI-pss-5" target="UAAGlxL8E-bhWDBI-pss-15" edge="1">
          <mxGeometry width="50" height="50" relative="1" as="geometry">
            <mxPoint x="740" y="1865" as="sourcePoint" />
            <mxPoint x="980" y="1855" as="targetPoint" />
          </mxGeometry>
        </mxCell>
        <mxCell id="UAAGlxL8E-bhWDBI-pss-21" value="사용자의 모든 요청을 받는 컨트롤러" style="text;html=1;align=center;verticalAlign=middle;resizable=0;points=[];autosize=1;strokeColor=none;fillColor=none;" parent="mxSxCT3K7TG5ama-A4u--1" vertex="1">
          <mxGeometry x="557.5" y="1690" width="220" height="30" as="geometry" />
        </mxCell>
        <mxCell id="UAAGlxL8E-bhWDBI-pss-22" value="각 서비스와 연결되는 서브 컨트롤러" style="text;html=1;align=center;verticalAlign=middle;resizable=0;points=[];autosize=1;strokeColor=none;fillColor=none;" parent="mxSxCT3K7TG5ama-A4u--1" vertex="1">
          <mxGeometry x="920" y="1440" width="220" height="30" as="geometry" />
        </mxCell>
        <mxCell id="UAAGlxL8E-bhWDBI-pss-23" value="" style="endArrow=none;html=1;rounded=0;exitX=1;exitY=1;exitDx=0;exitDy=0;entryX=0;entryY=0.5;entryDx=0;entryDy=0;" parent="mxSxCT3K7TG5ama-A4u--1" source="UAAGlxL8E-bhWDBI-pss-10" target="UAAGlxL8E-bhWDBI-pss-11" edge="1">
          <mxGeometry width="50" height="50" relative="1" as="geometry">
            <mxPoint x="460" y="1660" as="sourcePoint" />
            <mxPoint x="270" y="1630" as="targetPoint" />
          </mxGeometry>
        </mxCell>
        <mxCell id="UAAGlxL8E-bhWDBI-pss-24" value="" style="endArrow=none;html=1;rounded=0;exitX=1;exitY=0;exitDx=0;exitDy=0;entryX=0;entryY=0.5;entryDx=0;entryDy=0;" parent="mxSxCT3K7TG5ama-A4u--1" source="UAAGlxL8E-bhWDBI-pss-12" target="UAAGlxL8E-bhWDBI-pss-11" edge="1">
          <mxGeometry width="50" height="50" relative="1" as="geometry">
            <mxPoint x="219" y="1550" as="sourcePoint" />
            <mxPoint x="270" y="1630" as="targetPoint" />
          </mxGeometry>
        </mxCell>
        <mxCell id="UAAGlxL8E-bhWDBI-pss-25" value="&lt;p style=&quot;margin:0px;margin-top:4px;text-align:center;&quot;&gt;&lt;b&gt;로그인 화면 Class&lt;/b&gt;&lt;/p&gt;&lt;hr size=&quot;1&quot;&gt;&lt;p style=&quot;margin:0px;margin-left:4px;&quot;&gt;+ field: Type&lt;/p&gt;&lt;hr size=&quot;1&quot;&gt;&lt;p style=&quot;margin:0px;margin-left:4px;&quot;&gt;+ method(): Type&lt;/p&gt;" style="verticalAlign=top;align=left;overflow=fill;fontSize=12;fontFamily=Helvetica;html=1;whiteSpace=wrap;shadow=1;" parent="mxSxCT3K7TG5ama-A4u--1" vertex="1">
          <mxGeometry x="50" y="1895" width="155" height="100" as="geometry" />
        </mxCell>
        <mxCell id="UAAGlxL8E-bhWDBI-pss-26" value="&lt;p style=&quot;margin:0px;margin-top:4px;text-align:center;&quot;&gt;&lt;b&gt;메인 화면 Class&lt;/b&gt;&lt;/p&gt;&lt;hr size=&quot;1&quot;&gt;&lt;p style=&quot;margin:0px;margin-left:4px;&quot;&gt;+ field: Type&lt;/p&gt;&lt;hr size=&quot;1&quot;&gt;&lt;p style=&quot;margin:0px;margin-left:4px;&quot;&gt;+ method(): Type&lt;/p&gt;" style="verticalAlign=top;align=left;overflow=fill;fontSize=12;fontFamily=Helvetica;html=1;whiteSpace=wrap;shadow=1;" parent="mxSxCT3K7TG5ama-A4u--1" vertex="1">
          <mxGeometry x="265" y="2000" width="160" height="130" as="geometry" />
        </mxCell>
        <mxCell id="UAAGlxL8E-bhWDBI-pss-27" value="&lt;p style=&quot;margin:0px;margin-top:4px;text-align:center;&quot;&gt;&lt;b&gt;프로젝트 관리 Class&lt;/b&gt;&lt;/p&gt;&lt;hr size=&quot;1&quot;&gt;&lt;p style=&quot;margin:0px;margin-left:4px;&quot;&gt;+ field: Type&lt;/p&gt;&lt;hr size=&quot;1&quot;&gt;&lt;p style=&quot;margin:0px;margin-left:4px;&quot;&gt;+ method(): Type&lt;/p&gt;" style="verticalAlign=top;align=left;overflow=fill;fontSize=12;fontFamily=Helvetica;html=1;whiteSpace=wrap;shadow=1;" parent="mxSxCT3K7TG5ama-A4u--1" vertex="1">
          <mxGeometry x="65" y="2135" width="155" height="90" as="geometry" />
        </mxCell>
        <mxCell id="UAAGlxL8E-bhWDBI-pss-28" value="" style="endArrow=none;html=1;rounded=0;exitX=1;exitY=1;exitDx=0;exitDy=0;" parent="mxSxCT3K7TG5ama-A4u--1" edge="1">
          <mxGeometry width="50" height="50" relative="1" as="geometry">
            <mxPoint x="205" y="1995" as="sourcePoint" />
            <mxPoint x="265" y="2045" as="targetPoint" />
          </mxGeometry>
        </mxCell>
        <mxCell id="UAAGlxL8E-bhWDBI-pss-29" value="" style="endArrow=none;html=1;rounded=0;exitX=1;exitY=0;exitDx=0;exitDy=0;" parent="mxSxCT3K7TG5ama-A4u--1" edge="1">
          <mxGeometry width="50" height="50" relative="1" as="geometry">
            <mxPoint x="220" y="2135" as="sourcePoint" />
            <mxPoint x="265" y="2045" as="targetPoint" />
          </mxGeometry>
        </mxCell>
        <mxCell id="UAAGlxL8E-bhWDBI-pss-30" value="&lt;p style=&quot;margin:0px;margin-top:4px;text-align:center;&quot;&gt;&lt;b&gt;펀딩(결제)Controller Class&lt;/b&gt;&lt;/p&gt;&lt;hr size=&quot;1&quot;&gt;&lt;p style=&quot;margin:0px;margin-left:4px;&quot;&gt;+ field: Type&lt;/p&gt;&lt;hr size=&quot;1&quot;&gt;&lt;p style=&quot;margin:0px;margin-left:4px;&quot;&gt;+ method(): Type&lt;/p&gt;" style="verticalAlign=top;align=left;overflow=fill;fontSize=12;fontFamily=Helvetica;html=1;whiteSpace=wrap;shadow=1;" parent="mxSxCT3K7TG5ama-A4u--1" vertex="1">
          <mxGeometry x="955" y="1660" width="160" height="130" as="geometry" />
        </mxCell>
        <mxCell id="UAAGlxL8E-bhWDBI-pss-31" value="" style="endArrow=none;html=1;rounded=0;entryX=0.013;entryY=0.569;entryDx=0;entryDy=0;entryPerimeter=0;exitX=1;exitY=0.5;exitDx=0;exitDy=0;" parent="mxSxCT3K7TG5ama-A4u--1" source="UAAGlxL8E-bhWDBI-pss-5" target="UAAGlxL8E-bhWDBI-pss-30" edge="1">
          <mxGeometry width="50" height="50" relative="1" as="geometry">
            <mxPoint x="730" y="1850" as="sourcePoint" />
            <mxPoint x="780" y="1810" as="targetPoint" />
          </mxGeometry>
        </mxCell>
        <mxCell id="UAAGlxL8E-bhWDBI-pss-32" value="/project_search" style="text;html=1;align=center;verticalAlign=middle;resizable=0;points=[];autosize=1;strokeColor=none;fillColor=none;" parent="mxSxCT3K7TG5ama-A4u--1" vertex="1">
          <mxGeometry x="55" y="1810" width="110" height="30" as="geometry" />
        </mxCell>
        <mxCell id="UAAGlxL8E-bhWDBI-pss-33" value="/project_main" style="text;html=1;align=center;verticalAlign=middle;resizable=0;points=[];autosize=1;strokeColor=none;fillColor=none;" parent="mxSxCT3K7TG5ama-A4u--1" vertex="1">
          <mxGeometry x="268.5" y="1720" width="100" height="30" as="geometry" />
        </mxCell>
        <mxCell id="UAAGlxL8E-bhWDBI-pss-34" value="/project_login" style="text;html=1;align=center;verticalAlign=middle;resizable=0;points=[];autosize=1;strokeColor=none;fillColor=none;" parent="mxSxCT3K7TG5ama-A4u--1" vertex="1">
          <mxGeometry x="55" y="1605" width="90" height="30" as="geometry" />
        </mxCell>
        <mxCell id="UAAGlxL8E-bhWDBI-pss-35" value="/manage_main" style="text;html=1;align=center;verticalAlign=middle;resizable=0;points=[];autosize=1;strokeColor=none;fillColor=none;" parent="mxSxCT3K7TG5ama-A4u--1" vertex="1">
          <mxGeometry x="300" y="2130" width="100" height="30" as="geometry" />
        </mxCell>
        <mxCell id="UAAGlxL8E-bhWDBI-pss-36" value="/manage_project" style="text;html=1;align=center;verticalAlign=middle;resizable=0;points=[];autosize=1;strokeColor=none;fillColor=none;" parent="mxSxCT3K7TG5ama-A4u--1" vertex="1">
          <mxGeometry x="80" y="2225" width="110" height="30" as="geometry" />
        </mxCell>
        <mxCell id="UAAGlxL8E-bhWDBI-pss-37" value="/project_login" style="text;html=1;align=center;verticalAlign=middle;resizable=0;points=[];autosize=1;strokeColor=none;fillColor=none;" parent="mxSxCT3K7TG5ama-A4u--1" vertex="1">
          <mxGeometry x="82.5" y="2010" width="90" height="30" as="geometry" />
        </mxCell>
        <mxCell id="UAAGlxL8E-bhWDBI-pss-38" value="/Manage_Authentication" style="text;html=1;align=center;verticalAlign=middle;resizable=0;points=[];autosize=1;strokeColor=none;fillColor=none;" parent="mxSxCT3K7TG5ama-A4u--1" vertex="1">
          <mxGeometry x="960" y="1615" width="150" height="30" as="geometry" />
        </mxCell>
        <mxCell id="UAAGlxL8E-bhWDBI-pss-39" value="/purchase" style="text;html=1;align=center;verticalAlign=middle;resizable=0;points=[];autosize=1;strokeColor=none;fillColor=none;" parent="mxSxCT3K7TG5ama-A4u--1" vertex="1">
          <mxGeometry x="1000" y="1790" width="80" height="30" as="geometry" />
        </mxCell>
        <mxCell id="UAAGlxL8E-bhWDBI-pss-40" value="/notifyRequire" style="text;html=1;align=center;verticalAlign=middle;resizable=0;points=[];autosize=1;strokeColor=none;fillColor=none;" parent="mxSxCT3K7TG5ama-A4u--1" vertex="1">
          <mxGeometry x="985" y="1970" width="100" height="30" as="geometry" />
        </mxCell>
        <mxCell id="UAAGlxL8E-bhWDBI-pss-41" value="/purchase" style="text;html=1;align=center;verticalAlign=middle;resizable=0;points=[];autosize=1;strokeColor=none;fillColor=none;" parent="mxSxCT3K7TG5ama-A4u--1" vertex="1">
          <mxGeometry x="1000" y="2150" width="80" height="30" as="geometry" />
        </mxCell>
      </root>
    </mxGraphModel>
  </diagram>
</mxfile>
